<?xml version="1.0" encoding="utf-8"?>
<!-- Generator: Adobe Illustrator 24.1.1, SVG Export Plug-In . SVG Version: 6.00 Build 0)  -->
<svg version="1.1" id="Layer_1" xmlns="http://www.w3.org/2000/svg" xmlns:xlink="http://www.w3.org/1999/xlink" x="0px" y="0px"
	 viewBox="0 0 1000 1000" enable-background="new 0 0 1000 1000" xml:space="preserve">
<path fill="#E6E6E6" d="M389.4,790.6c-10.9,3.8-23,1.7-31.9-5.6c-11.2-9.4-14.7-24.8-17.5-39.1l-8.4-42.3l17.6,12.2
	c12.7,8.7,25.7,17.8,34.4,30.4s12.6,29.9,5.6,43.6"/>
<path fill="#F2F2F2" d="M387.9,841.8c1.8-13,3.6-26.2,2.4-39.3c-1.1-11.7-4.7-23.1-11.9-32.4c-3.9-5-8.5-9.2-13.8-12.5
	c-1.4-0.9-2.7,1.3-1.3,2.2c9.2,5.8,16.3,14.4,20.3,24.5c4.4,11.2,5.1,23.5,4.4,35.4c-0.5,7.2-1.4,14.4-2.4,21.5
	c-0.2,0.7,0.2,1.3,0.9,1.6C387,842.8,387.7,842.4,387.9,841.8L387.9,841.8z"/>
<path fill="#E6E6E6" d="M370.7,818.8c-4.7,7.1-12.7,11.2-21.2,10.9c-10.7-0.5-19.7-8-27.7-15.1l-23.8-21l15.8-0.8
	c11.3-0.5,22.9-1,33.7,2.5c10.8,3.5,20.7,11.9,22.7,23.1"/>
<path fill="#F2F2F2" d="M393,849.2c-8.6-15.2-18.6-32.1-36.4-37.5c-5-1.5-10.1-2-15.3-1.6c-1.6,0.1-1.2,2.6,0.4,2.5
	c8.6-0.7,17.3,1.6,24.4,6.5c6.9,4.7,12.2,11.2,16.8,18.1c2.8,4.2,5.3,8.6,7.8,13C391.4,851.7,393.8,850.7,393,849.2L393,849.2z"/>
<path fill="#CCCCCC" d="M623.3,544.6L435.9,699.9c-4.9,4.1-12.2,3.4-16.3-1.5l-79-95.3c-4.1-4.9-3.4-12.2,1.5-16.3l187.4-155.3
	c4.9-4.1,12.2-3.4,16.3,1.5l79,95.3C628.9,533.3,628.2,540.5,623.3,544.6z"/>
<path fill="#FFFFFF" d="M615.8,539.9l-183,151.7c-2.5,2.1-6.3,1.7-8.4-0.8l-75.4-91c-2.1-2.5-1.7-6.3,0.8-8.4l183.1-151.7
	c2.5-2.1,6.3-1.7,8.4,0.8l75.4,91C618.7,534.1,618.3,537.8,615.8,539.9z"/>
<path fill="#CCCCCC" d="M624.2,571.7l-37.7-3.5l27-21.2l14.5,17.5c1.2,1.4,1.4,3.3,0.5,4.9c-0.3,0.5-0.7,1-1.1,1.4
	C626.5,571.5,625.4,571.8,624.2,571.7z"/>
<path fill="#CCCCCC" d="M548.6,504.3L456,581c-2.4,2-5.9,1.6-7.9-0.7s-1.6-5.9,0.7-7.9l92.6-76.8c2.4-2,5.9-1.6,7.9,0.7
	S551,502.3,548.6,504.3L548.6,504.3z"/>
<path fill="#CCCCCC" d="M503.3,510.9l-62.5,51.8c-2.4,2-5.9,1.6-7.9-0.7s-1.6-5.9,0.7-7.9l0,0l62.5-51.8c2.4-2,5.9-1.6,7.9,0.7
	C506,505.5,505.7,509,503.3,510.9L503.3,510.9L503.3,510.9z"/>
<circle fill="#6C63FF" cx="406.5" cy="599.3" r="17.5"/>
<circle fill="#E6E6E6" cx="545.6" cy="558.7" r="5.6"/>
<circle fill="#E6E6E6" cx="560.7" cy="546.2" r="5.6"/>
<circle fill="#E6E6E6" cx="575.7" cy="533.7" r="5.6"/>
<polygon fill="#FFB8B8" points="486.6,839.5 499.4,839.5 505.5,790 486.6,790 "/>
<path fill="#2F2E41" d="M483.3,835.3h25.3l0,0c8.9,0,16.1,7.2,16.1,16.1l0,0v0.5h-41.4L483.3,835.3z"/>
<polygon fill="#FFB8B8" points="440.5,839.5 453.3,839.5 459.4,790 440.5,790 "/>
<path fill="#2F2E41" d="M437.2,835.3h25.3l0,0c8.9,0,16.1,7.2,16.1,16.1l0,0v0.5h-41.4V835.3z"/>
<path fill="#2F2E41" d="M453.4,824.3L453.4,824.3h-10.9c-2.5,0-4.6-2-4.7-4.5l-0.3-9.6c-2.8-76.4-5.6-155.4,12.1-190.9l0.1-0.3
	l58.5-2.1l11.8,107.8c0.5,4.6,0.3,9.3-0.5,13.8l-15.5,81.9c-0.4,2.3-2.5,3.9-4.8,3.8l-12.3-0.4c-2.6-0.1-4.6-2.3-4.5-4.9
	c0-0.1,0-0.2,0-0.3l9.6-75.7c0.3-3.3,0-6.6-0.9-9.7l-12-41.9c-0.2-0.8-1.1-1.3-1.9-1.1c-0.6,0.2-1,0.7-1.1,1.3L458,820.3
	C457.7,822.6,455.7,824.3,453.4,824.3z"/>
<circle fill="#FFB8B8" cx="460.4" cy="483.4" r="25.7"/>
<path fill="#6C63FF" d="M505.4,624.9h-53.2c-2.6,0-4.7-2.1-4.7-4.7c0-0.2,0-0.5,0-0.7l2.6-18L434.7,559
	c-5.9-16.2,2.5-34.2,18.7-40.1c2.1-0.8,4.3-1.3,6.5-1.6l0,0c13.5-1.9,26.7,5.3,32.5,17.6l3.4,7.2l14.3,77.1c0.5,2.6-1.2,5-3.8,5.5
	C506,624.8,505.7,624.9,505.4,624.9L505.4,624.9z"/>
<path fill="#FFB8B8" d="M393,670c6-1.4,9.8-7.5,8.4-13.5c-0.1-0.7-0.4-1.3-0.6-1.9l41.5-93.7l-23.7-6l-33.3,94
	c-5.6,2.8-7.8,9.7-5,15.2C382.7,668.8,387.9,671.3,393,670L393,670z"/>
<path fill="#6C63FF" d="M436.7,577.7l-23.1-10.8c-2.5-1.2-3.6-4.2-2.4-6.7c0.1-0.2,0.2-0.4,0.4-0.7l14-21.2c3.3-7,11.7-10,18.7-6.6
	c7,3.3,9.9,11.6,6.7,18.6l-7.3,24.3c-0.8,2.7-3.6,4.2-6.3,3.4C437.1,577.9,436.9,577.8,436.7,577.7L436.7,577.7z"/>
<path fill="#FFB8B8" d="M566.1,428.9c1.9,5.9-1.4,12.3-7.3,14.1c-0.6,0.2-1.3,0.4-1.9,0.4l-59.3,83.6l-17.3-17.3L544,433
	c-0.4-6.2,4.3-11.6,10.5-12C559.7,420.6,564.5,423.9,566.1,428.9L566.1,428.9z"/>
<path fill="#6C63FF" d="M511.3,517.3c0.2,1.5-0.3,2.9-1.3,4l-17.1,18.7c-4.3,6.4-13,8.1-19.5,3.8c-6.4-4.3-8.1-13-3.8-19.4l11-22.9
	c1.2-2.5,4.2-3.6,6.7-2.4c0.2,0.1,0.4,0.2,0.6,0.4l21.1,14.3C510.3,514.5,511.1,515.8,511.3,517.3z"/>
<path fill="#2F2E41" d="M494.2,472.6c0-2.3-0.3-4.6-1-6.9c-4.1-15.3-19.5-24.5-34.8-22.2c-3-0.9-6.1-1.3-9.2-1.3l0,0
	c-16.3,0-30.2,11.9-32.7,28l-12.4,79.9h67.1l10.8-69.7c0.4-2.6,0.5-5.2,0.3-7.8L494.2,472.6L494.2,472.6z"/>
<path fill="#CCCCCC" d="M577.5,852.5h-221c-0.6,0-1-0.5-1-1s0.5-1,1-1h221c0.6,0,1,0.5,1,1C578.6,852.1,578.1,852.5,577.5,852.5z"/>
<path fill="#A0616A" d="M800.2,338.2c5.8-0.6,10.9,3.7,11.5,9.5c0.1,0.6,0.1,1.2,0,1.9l34.3,15.1l-16.3,10.5l-30-15.9
	c-5.8-0.9-9.8-6.2-8.9-12C791.4,342.3,795.3,338.6,800.2,338.2L800.2,338.2z"/>
<circle fill="#A0616A" cx="938.4" cy="293.6" r="25.7"/>
<polygon fill="#A0616A" points="891.8,660.5 879,660.5 872.9,611 891.8,611 "/>
<path fill="#2F2E41" d="M895.1,673h-41.4v-0.5c0-8.9,7.2-16.1,16.1-16.1l0,0l0,0h25.3V673z"/>
<polygon fill="#A0616A" points="945.3,660.5 932.4,660.5 926.3,611 945.3,611 "/>
<path fill="#2F2E41" d="M948.5,673h-41.4v-0.5c0-8.9,7.2-16.1,16.1-16.1l0,0l0,0h25.3V673z"/>
<path fill="#2F2E41" d="M944.7,650c-0.2,0-0.4,0-0.6,0l-18.8-2.3c-2.3-0.3-4-2.2-4.1-4.4l-5.5-123.4c0-0.9-0.8-1.5-1.7-1.5
	c-0.6,0-1.1,0.4-1.3,0.9l-14.1,46.9l-2.9,75.4c-0.1,2.6-2.3,4.6-4.9,4.5c-0.1,0-0.3,0-0.4,0l-16.3-1.9c-2.4-0.3-4.2-2.3-4.2-4.8
	l1.4-70.9l11-111.4l0.5,0l67.1,2.6l-0.6,185.6C949.4,647.9,947.3,650,944.7,650z"/>
<path fill="#3F3D56" d="M947.4,469.8c0,0-0.1,0-0.1,0l-67.5-1.8c-2.6-0.1-4.7-2.2-4.6-4.8c0-0.2,0-0.3,0-0.5l13-95.5
	c1.6-13,8.8-24.8,19.6-32.3c9.5-6.5,21.4-8.7,32.6-5.8c23.6,6,37.7,31.3,31.5,56.4L952,466.2C951.5,468.3,949.6,469.8,947.4,469.8z"
	/>
<path fill="#3F3D56" d="M858.8,394c-4.5,0-8.8-1.3-12.5-3.7l-39.4-25.8c-2.2-1.4-2.8-4.4-1.4-6.5c0.2-0.2,0.3-0.5,0.5-0.7l5.9-6.3
	c1.3-1.4,3.4-1.9,5.2-1.1l44,17.5l40.8-29.1c7.6-5.4,18.2-3.7,23.6,3.9s3.7,18.2-3.9,23.6c-0.8,0.5-1.6,1-2.4,1.5l-50.4,24.5
	C865.7,393.2,862.3,394,858.8,394z"/>
<path fill="#2F2E41" d="M947.3,318.3c4.4,1,9.7,1.8,12.8-1.4c0.6-0.6,1-1.3,1.5-2l4.1-6.3c3.1-4.8,6.3-9.7,7.7-15.3
	c3.2-13.4-5.1-26.8-18.4-30c-0.1,0-0.2,0-0.3-0.1c-6.1-1.4-12.1-3.7-18.4-3.3c-6.3,0.4-13.6,0.3-18.9-3.1c0.3,1.5,2.1,8.3,2.1,8.3
	s-7.9,7.3-9.5,9.1c7.5-3.3,16.3,0.1,19.6,7.5c0.5,1.2,0.9,2.4,1.1,3.6c0.5,2.8,0.2,5.8,1.8,8.1c1.5,2.1,4.3,2.9,6.7,4.1
	c7,4,10,12.4,7.2,20L947.3,318.3z"/>
<path fill="#CCCCCC" d="M916.4,479H703.2c-5.6,0-10.1-4.5-10.1-10.1V360.4c0-5.6,4.5-10.1,10.1-10.1h213.3c5.6,0,10.1,4.5,10.1,10.1
	v108.5C926.5,474.5,922,479,916.4,479z"/>
<path fill="#FFFFFF" d="M914,471.7H705.6c-2.9,0-5.2-2.3-5.2-5.2V362.9c0-2.9,2.3-5.2,5.2-5.2H914c2.9,0,5.2,2.3,5.2,5.2v103.6
	C919.2,469.3,916.8,471.7,914,471.7z"/>
<path fill="#CCCCCC" d="M901.9,497.8l-23.4-23.4l30,0.8v19.9c0,1.6-0.9,3-2.4,3.6c-0.5,0.2-1,0.3-1.5,0.3
	C903.6,499,902.6,498.5,901.9,497.8z"/>
<path fill="#CCCCCC" d="M888.6,410H783.2c-2.7,0-4.9-2.2-4.9-4.9c0-2.7,2.2-4.9,4.9-4.9h105.4c2.7,0,4.9,2.2,4.9,4.9
	C893.5,407.8,891.3,410,888.6,410z"/>
<path fill="#CCCCCC" d="M854.3,389.2h-71.1c-2.7,0-4.9-2.2-4.9-4.9c0-2.7,2.2-4.9,4.9-4.9h71.1c2.7,0,4.9,2.2,4.9,4.9
	C859.2,387,857,389.2,854.3,389.2z"/>
<circle fill="#6C63FF" cx="739.6" cy="394.7" r="15.3"/>
<circle fill="#E6E6E6" cx="856.1" cy="445.1" r="4.9"/>
<circle fill="#E6E6E6" cx="873.3" cy="445.1" r="4.9"/>
<circle fill="#E6E6E6" cx="890.4" cy="445.1" r="4.9"/>
<path fill="#A0616A" d="M913.1,466.1c0.6-5.8,5.8-10,11.6-9.3c0.6,0.1,1.2,0.2,1.8,0.4l21.8-30.5l7,18.2L933.6,471
	c-2,5.5-8.1,8.3-13.6,6.3C915.4,475.6,912.6,471,913.1,466.1z"/>
<path fill="#3F3D56" d="M938.1,464.5c-0.3,0-0.7,0-1,0c-1.4-0.2-2.6-1-3.4-2.2l-4.6-7.3c-1-1.6-1-3.7,0.2-5.3l27.9-38.3L939,364.7
	c-3.4-8.5,0.7-18.2,9.2-21.7l0,0c8.6-3.6,18.5,0.4,22.2,9.1c0.4,1,0.8,2.1,1,3.1l11.2,54.9c1.6,7.9-1,16-7,21.4l-34.8,31.8
	C940.1,464,939.1,464.4,938.1,464.5z"/>
<path fill="#CCCCCC" d="M996.5,675.5h-221c-0.6,0-1-0.5-1-1s0.5-1,1-1h221c0.6,0,1,0.5,1,1C997.6,675,997.1,675.5,996.5,675.5z"/>
<path fill="#CCCCCC" d="M272.3,414.8H59c-5.6,0-10.1-4.5-10.1-10.1V296.2c0-5.6,4.5-10.1,10.1-10.1h213.3c5.6,0,10.1,4.5,10.1,10.1
	v108.5C282.4,410.2,277.8,414.8,272.3,414.8z"/>
<path fill="#FFFFFF" d="M269.8,407.4H61.4c-2.9,0-5.2-2.3-5.2-5.2V298.6c0-2.9,2.3-5.2,5.2-5.2h208.4c2.9,0,5.2,2.3,5.2,5.2v103.6
	C275,405.1,272.7,407.4,269.8,407.4z"/>
<path fill="#CCCCCC" d="M257.7,433.6l-23.4-23.4l30,0.8v19.9c0,1.6-0.9,3-2.4,3.6c-0.5,0.2-1,0.3-1.5,0.3
	C259.4,434.7,258.5,434.3,257.7,433.6z"/>
<path fill="#CCCCCC" d="M244.4,345.8H139c-2.7,0-4.9-2.2-4.9-4.9c0-2.7,2.2-4.9,4.9-4.9h105.4c2.7,0,4.9,2.2,4.9,4.9
	S247.1,345.8,244.4,345.8z"/>
<path fill="#CCCCCC" d="M210.1,324.9H139c-2.7,0-4.9-2.2-4.9-4.9c0-2.7,2.2-4.9,4.9-4.9h71.1c2.7,0,4.9,2.2,4.9,4.9
	C215,322.7,212.8,324.9,210.1,324.9L210.1,324.9z"/>
<circle fill="#6C63FF" cx="95.4" cy="330.5" r="15.3"/>
<circle fill="#E6E6E6" cx="211.9" cy="380.8" r="4.9"/>
<circle fill="#E6E6E6" cx="229.1" cy="380.8" r="4.9"/>
<circle fill="#E6E6E6" cx="246.3" cy="380.8" r="4.9"/>
<path fill="#FFB8B8" d="M263.4,275.6c-5.5,2-8.3,8-6.3,13.5c0.2,0.6,0.5,1.1,0.8,1.7l-24.5,28.3l19.3,2.5l20.3-27.2
	c4.9-3.3,6.2-9.8,2.9-14.7C273.2,275.6,268,274,263.4,275.6z"/>
<path fill="#FFB8B8" d="M99.6,287c2,5.5-0.9,11.5-6.3,13.5c-0.6,0.2-1.2,0.4-1.8,0.5l-6.1,36.9l-14.3-13.2l8-33
	c-0.6-5.8,3.6-11,9.4-11.6C93.4,279.5,98,282.4,99.6,287L99.6,287z"/>
<polygon fill="#FFB8B8" points="137.9,660.5 150.8,660.5 156.9,611 137.9,611 "/>
<path fill="#2F2E41" d="M134.7,656.3H160l0,0c8.9,0,16.1,7.2,16.1,16.1l0,0v0.5h-41.4V656.3z"/>
<polygon fill="#FFB8B8" points="71.9,660.5 84.8,660.5 90.9,611 71.9,611 "/>
<path fill="#2F2E41" d="M68.7,656.3H94l0,0c8.9,0,16.1,7.2,16.1,16.1l0,0v0.5H68.7V656.3z"/>
<circle fill="#FFB8B8" cx="135.3" cy="296.6" r="25.7"/>
<path fill="#2F2E41" d="M132.2,644.1L130,508.5c0-0.9-0.7-1.6-1.6-1.5c-0.7,0-1.3,0.5-1.5,1.2L92.1,640.8c-0.5,2.2-2.5,3.7-4.8,3.6
	l-19.2-0.8c-2.6-0.1-4.6-2.3-4.5-4.9c0-0.1,0-0.3,0-0.4l29.6-170.4l0.1-0.5l82.4,3.9l0.5,0l-17.7,173c-0.2,2.5-2.2,4.3-4.7,4.4h-17
	C134.3,648.7,132.2,646.6,132.2,644.1z"/>
<path fill="#2F2E41" d="M197.3,482.8l-119.6-9.8c-2.6-0.2-4.5-2.5-4.3-5.1c0-0.4,0.1-0.8,0.3-1.2l18.8-52.1l1.1-61.8
	c0.2-9.4,7.9-16.8,17.3-16.6c0.1,0,0.1,0,0.2,0l7.9-7.2h29.1l2.5,3.3l20.3,3.1c7.4,1.2,13.2,7.1,14.2,14.5l17.2,127.6
	c0.4,2.6-1.5,5-4,5.3c-0.2,0-0.4,0-0.6,0C197.5,482.8,197.4,482.8,197.3,482.8z"/>
<path fill="#2F2E41" d="M174,341.3l51-14.9l23.1-30.4c1.3-1.7,3.6-2.3,5.6-1.5l14.4,6.2c2.4,1,3.5,3.8,2.5,6.2
	c-0.1,0.2-0.2,0.4-0.3,0.5L253,337c-2.8,4.8-7.1,8.7-12.2,10.9l-60,26.5L174,341.3z"/>
<path fill="#2F2E41" d="M76.1,363.7c-6.2-4.5-9.6-11.8-9-19.5l2.2-29.6c0.2-2.5,2.2-4.4,4.7-4.4h0l16.9,0.1c2.6,0,4.7,2.1,4.7,4.8
	c0,0.3,0,0.6-0.1,0.9l-3.1,16l22.4,9.5L96,378.1L76.1,363.7z"/>
<path fill="#2F2E41" d="M150.2,265.7c0,0-26.9-14.5-41.6,2.6s5.6,43.8,5.6,43.8l28.9,3.6c0,0,1.1-19.6,7.9-19.2
	S179.2,272.2,150.2,265.7z"/>
<path fill="#CCCCCC" d="M225.5,674.4H4.5c-0.6,0-1-0.5-1-1s0.5-1,1-1h221c0.6,0,1.1,0.5,1.1,1C226.6,674,226.1,674.4,225.5,674.4z"
	/>
</svg>
