<?xml version="1.0" encoding="utf-8"?>
<!-- Generator: Adobe Illustrator 24.1.1, SVG Export Plug-In . SVG Version: 6.00 Build 0)  -->
<svg version="1.1" id="Layer_1" xmlns="http://www.w3.org/2000/svg" xmlns:xlink="http://www.w3.org/1999/xlink" x="0px" y="0px"
	 viewBox="0 0 1000 1000" enable-background="new 0 0 1000 1000" xml:space="preserve">
<g>
	<path fill="#F2F2F2" d="M101.5,790.6l-19,17.5l15.1-25.4c-11.9-21.6-31.4-40.3-31.4-40.3s-40.4,38.7-40.4,69.2s18.1,41.1,40.4,41.1
		s40.4-10.6,40.4-41.1C106.6,804.8,104.6,797.6,101.5,790.6z"/>
	<path fill="#FFFFFF" d="M77.6,809v1.5c-0.1,17.4-3,31.1-8.8,40.6c-0.1,0.1-0.2,0.3-0.3,0.4l-0.7-0.4l-0.6-0.4
		c6.4-10.3,8.7-25,8.8-40.2c0-0.5,0-1,0-1.5c0-6.4-0.4-13-1.1-19.3c0-0.5-0.1-1-0.2-1.5c-0.9-8.3-2.1-16.3-3.4-23.3
		c-0.1-0.5-0.2-1-0.3-1.5c-2.2-11.7-4.5-20.2-5-22.1c-0.1-0.2-0.1-0.4-0.1-0.4l0.7-0.2l0,0l0.7-0.2c0,0,0.1,0.5,0.3,1.2
		c0.8,2.9,2.9,10.9,4.9,21.5c0.1,0.5,0.2,1,0.3,1.5c1.1,5.6,2.1,11.9,2.9,18.5c0.2,1.7,0.4,3.3,0.6,4.9c0.1,0.5,0.1,1,0.2,1.5
		C77.2,796.6,77.6,803,77.6,809z"/>
	<path fill="#FFFFFF" d="M72.6,763.4c-0.5,0.1-1,0.1-1.5,0.2c-1.4,0.1-2.8,0.2-4.2,0.2c-6,0-11.8-1.3-17.2-3.9
		c-0.3,0.4-0.6,0.8-0.9,1.2c5.7,2.8,11.9,4.2,18.2,4.2c1.5,0,3-0.1,4.5-0.2c0.5,0,1-0.1,1.5-0.2c4.1-0.6,8.1-1.8,11.8-3.6
		c-0.3-0.4-0.6-0.8-0.9-1.2C80.3,761.8,76.5,762.9,72.6,763.4z"/>
	<path fill="#FFFFFF" d="M76.4,788.3c-0.5,0-1,0-1.5,0c-0.2,0-0.3,0-0.5,0c-13.1,0-25.4-6.4-32.9-17.2c-0.3,0.4-0.6,0.9-0.9,1.3
		c7.8,10.9,20.4,17.3,33.8,17.3c0.2,0,0.4,0,0.6,0c0.5,0,1,0,1.6,0c7.9-0.4,15.6-3.1,22-7.7c-0.2-0.4-0.5-0.9-0.7-1.3
		C91.6,785.3,84.1,787.9,76.4,788.3z"/>
	<path fill="#FFFFFF" d="M77.6,809c-0.5,0-1,0.1-1.6,0.1c-0.6,0-1.1,0-1.7,0c-17.8,0-33.5-11.8-38.5-28.9c-0.3,0.6-0.7,1.2-1,1.8
		c5.6,17.1,21.6,28.6,39.5,28.6c0.6,0,1.1,0,1.7,0c0.5,0,1.1,0,1.6-0.1c10.5-0.8,20.3-5.6,27.4-13.4c-0.2-0.5-0.3-1.1-0.5-1.6
		C97.6,803.3,88,808.2,77.6,809z"/>
	<rect x="633.8" y="233.3" fill="#F0F0F0" width="365.1" height="221.2"/>
	<path fill="#CACACA" d="M992.8,185.9H484c-0.6,0-1.2-0.5-1.2-1.2s0.5-1.2,1.2-1.2h508.8c0.7,0,1.2,0.5,1.2,1.2
		S993.5,185.9,992.8,185.9z"/>
	
		<ellipse transform="matrix(0.3827 -0.9239 0.9239 0.3827 170.5591 568.2598)" fill="#3F3D56" cx="510.5" cy="156.5" rx="13" ry="13"/>
	<circle fill="#3F3D56" cx="555.3" cy="156.5" r="13"/>
	<ellipse transform="matrix(0.1602 -0.9871 0.9871 0.1602 349.4317 723.703)" fill="#3F3D56" cx="600" cy="156.5" rx="13" ry="13"/>
	<path fill="#FFFFFF" d="M842.3,341.2l-22.2-22.9c-1-1-2.3-1.5-3.7-1.5h-0.1c-1.4,0-2.7,0.5-3.7,1.5l-22.2,22.9
		c-2,1.9-2.1,5-0.2,6.9c0.1,0.1,0.2,0.2,0.2,0.2c2.1,2,5.4,2,7.5,0l13.2-13.8v35.5c0.1,2.9,2.6,5.2,5.5,5.1c2.8-0.1,5-2.3,5.1-5.1
		v-35.5l13.2,13.8c2.1,2,5.4,2,7.5,0c2-1.9,2.1-5,0.2-6.9C842.5,341.4,842.4,341.3,842.3,341.2z"/>
	<path fill="#FFFFFF" d="M816.4,398.5c-28.8,0-52.2-23.4-52.2-52.2s23.3-52.2,52.2-52.2s52.2,23.4,52.2,52.2l0,0
		C868.5,375.1,845.2,398.5,816.4,398.5z M816.4,296.1c-27.7,0-50.2,22.5-50.2,50.2s22.5,50.2,50.2,50.2s50.2-22.5,50.2-50.2
		C866.6,318.6,844.1,296.2,816.4,296.1z"/>
	<path id="a4df8293-127a-4fe1-b900-32b0737a0281-721" fill="#FFFFFF" d="M845.4,572.7h-341c-3.5,0-6.3-5.8-6.3-12.9V386.7
		c0-7.1,2.8-12.9,6.3-12.9h341c3.5,0,6.3,5.8,6.3,12.9v173.1C851.7,566.9,848.9,572.7,845.4,572.7z"/>
	<g id="f5addd83-a4bf-4cbc-bc49-a1c93dc12b76">
		<circle id="b85ea7ab-2687-4539-bc87-5f9af2589fda" fill="#3F3D56" cx="614.1" cy="442.3" r="29.8"/>
		<path id="a93bdb3c-c63a-46e2-832f-5ad698cb7678-722" fill="#6C63FF" d="M707.6,534.2H561.3c-0.2,0-0.4,0-0.5,0l69.2-119.8
			c1.3-2.3,4.3-3.1,6.6-1.8c0.8,0.4,1.4,1.1,1.8,1.8l46.4,80.4l2.2,3.9L707.6,534.2z"/>
		<path id="a9a16db8-129a-402e-ab5a-cd8e8637e69a-723" fill="#6C63FF" d="M789,534.2H662.5l24.5-35.6l1.8-2.6l32-46.4
			c2.2-2.8,6.3-3.3,9.1-1c0.2,0.1,0.3,0.3,0.5,0.5c0.2,0.2,0.3,0.4,0.5,0.6L789,534.2z"/>
	</g>
	<path id="e7d95ff1-9828-4401-a808-15868bd1799b-724" fill="#E6E6E6" d="M845.4,572.7h-341c-3.5,0-6.3-5.8-6.3-12.9V386.7
		c0-7.1,2.8-12.9,6.3-12.9h341c3.5,0,6.3,5.8,6.3,12.9v173.1C851.7,566.9,848.9,572.7,845.4,572.7z M504.4,378.9
		c-2.1,0-3.8,3.5-3.8,7.8v173.1c0,4.3,1.7,7.8,3.8,7.8h341c2.1,0,3.8-3.5,3.8-7.8V386.7c0-4.3-1.7-7.8-3.8-7.8H504.4z"/>
	<path fill="#CACACA" d="M451.8,855H3.1c-0.6,0-1.2-0.5-1.2-1.2s0.5-1.2,1.2-1.2h448.7c0.6,0,1.2,0.5,1.2,1.2S452.5,855,451.8,855z"
		/>
	<path fill="#2F2E41" d="M317.5,387.8c-11.1-15.6-33-16.3-33-16.3s-21.4-2.3-35.1,21.5c-12.8,22.2,5.2,49.7,5.2,49.7
		c3.6,0.2,18.9,0.3,64.8-5.4l2-11.1l5.9,10.1c2.5-0.3,5-0.6,7.6-0.9C333.7,423.7,328.1,402.8,317.5,387.8z"/>
	<path fill="#FFB8B8" d="M343.6,606.3l-2.9-101.1l-20,8.8l9.6,93.4c-5.3,4.1-6.3,11.8-2.2,17.1s11.8,6.3,17.1,2.2
		c5.3-4.1,6.3-11.8,2.2-17.1C346.4,608.2,345.1,607.1,343.6,606.3L343.6,606.3z"/>
	<path fill="#E6E6E6" d="M317.6,518.3c13,1.3,22.4-4.1,28.8-15l-4.4-20c0-13.4-8.7-25.2-21.4-29.2l-2.3-0.7L317.6,518.3z"/>
	<path fill="#6C63FF" d="M208.8,490.6c-0.2,0-0.3,0-0.5,0l-24.1-0.4l-0.1-0.6v0l2-49.7c0.1-2.1,1.9-3.8,4-3.7l0,0l19.3,0.9
		c2.1,0.1,3.8,1.9,3.7,4l0,0l-1.9,47.2C211.2,489.5,210.1,490.6,208.8,490.6L208.8,490.6z"/>
	<path fill="#2F2E41" d="M206.1,490.6c-0.1,0-0.1,0-0.2,0l-18.9-0.8c-2.2-0.1-4-2-3.9-4.2l2-45.4c0.1-2.1,1.9-3.8,4-3.7l19.3,0.9
		c2.1,0.1,3.8,1.9,3.7,4l-2,45.4C210.1,488.9,208.3,490.6,206.1,490.6L206.1,490.6z"/>
	<circle fill="#6C63FF" cx="197.6" cy="448.3" r="2.8"/>
	<path fill="#FFB8B8" d="M220.6,502.9v18.3L203,493.4c3.2-5.5,1.4-12.5-4.1-15.7c-5.5-3.2-12.5-1.4-15.7,4.1
		c-3.2,5.5-1.4,12.5,4.1,15.7c1.4,0.8,2.9,1.3,4.6,1.5l24.6,43.7c3.3,5.9,10.8,8,16.7,4.7c3.5-2,5.8-5.5,6.2-9.5l3.1-32.5
		L220.6,502.9z"/>
	<path fill="#E6E6E6" d="M244.8,517c-12.3,1.2-21.1-3.9-27.1-14.1l4.1-18.9c0-12.6,8.2-23.7,20.2-27.5l2.2-0.7L244.8,517z"/>
	<polygon fill="#FFB6B6" points="273.3,844 259.8,841.9 261.8,789 281.7,792.2 	"/>
	<path fill="#2F2E41" d="M276.3,854.2l-43.9,0v-0.6c0-9.4,7.6-17.1,17.1-17.1l0,0l26.8,0L276.3,854.2z"/>
	<polygon fill="#FFB6B6" points="337.5,813.3 325.3,819.4 295.9,775.4 313.8,766.3 	"/>
	<path fill="#2F2E41" d="M346.5,823.5l-39.2,19.8l-0.3-0.5c-4.3-8.4-0.9-18.7,7.6-23l0,0l23.9-12.1L346.5,823.5z"/>
	<circle fill="#FFB8B8" cx="283" cy="414.2" r="23.9"/>
	<path fill="#2F2E41" d="M312.6,390.1l-21.7-11.4l-29.9,4.6l-6.2,27.4c30.6,4.4,51.7,6.9,58.8-0.5L312.6,390.1z"/>
	<path fill="#2F2E41" d="M244.4,563.7c0,0-18.2,37.3,2,92.4l55.8,142.2l26.7-15.8l-27.2-61.2l22.1-74.9c5.1-17,6.7-34.8,4.6-52.4
		c-1.6-13.2-5.3-26.6-13.3-33.3C296.1,544.7,244.4,563.7,244.4,563.7z"/>
	<polygon fill="#2F2E41" points="274.9,710.5 254.7,813 281.6,818 298.5,729.3 	"/>
	<path fill="#E4E4E4" d="M300.6,449.8l-30.9,0.4l-27.1,6.2l1.6,108.4c0,0,48.9,13.8,70.4-5.3L328.8,458
		C320.8,453.5,311.3,451,300.6,449.8z"/>
	<circle fill="#2F2E41" cx="297.8" cy="374.4" r="15.3"/>
	<path fill="#2F2E41" d="M282.5,370.9c0-8.5,6.8-15.3,15.3-15.3c1,0,2,0.1,3,0.3c-7.6-3.6-16.8-0.3-20.4,7.3s-0.3,16.8,7.3,20.4
		c1.1,0.5,2.3,0.9,3.5,1.2C286,382.2,282.5,376.8,282.5,370.9z"/>
</g>
</svg>
