<?xml version="1.0" encoding="utf-8"?>
<!-- Generator: Adobe Illustrator 24.1.1, SVG Export Plug-In . SVG Version: 6.00 Build 0)  -->
<svg version="1.1" id="Layer_1" xmlns="http://www.w3.org/2000/svg" xmlns:xlink="http://www.w3.org/1999/xlink" x="0px" y="0px"
	 viewBox="0 0 1000 1000" enable-background="new 0 0 1000 1000" xml:space="preserve">
<g>
	<path fill="#E6E6E6" d="M466.3,302.7h-4V193.1c0-35-28.4-63.4-63.4-63.4H166.8c-35,0-63.4,28.4-63.4,63.4l0,0v601
		c0,35,28.4,63.4,63.4,63.4l0,0h232.1c35,0,63.4-28.4,63.4-63.4V380.6h4V302.7z"/>
	<path fill="#FFFFFF" d="M401.4,146.2h-30.3c4.7,11.5-0.8,24.6-12.3,29.3c-2.7,1.1-5.6,1.7-8.5,1.7h-133
		c-12.4,0-22.5-10.1-22.5-22.5c0-2.9,0.6-5.8,1.7-8.5h-28.3c-26.1,0-47.3,21.2-47.3,47.4v600.1c0,26.2,21.2,47.3,47.3,47.3l0,0
		h233.2c26.1,0,47.4-21.2,47.4-47.3l0,0l0,0V193.6C448.8,167.4,427.6,146.2,401.4,146.2L401.4,146.2z"/>
	<path fill="#CCCCCC" d="M149.8,428.6c-0.6,0-1-0.5-1-1v-35c0-0.5,0.4-1,1-1s1,0.5,1,1v35C150.8,428.2,150.4,428.6,149.8,428.6z"/>
	<path fill="#CCCCCC" d="M156.8,434.1c-0.6,0-1-0.5-1-1v-46c0-0.5,0.4-1,1-1s1,0.5,1,1v46C157.8,433.7,157.4,434.1,156.8,434.1z"/>
	<path fill="#CCCCCC" d="M163.8,437.6c-0.6,0-1-0.5-1-1v-53c0-0.5,0.4-1,1-1s1,0.5,1,1v53C164.8,437.2,164.4,437.6,163.8,437.6z"/>
	<path fill="#CCCCCC" d="M170.8,446.6c-0.6,0-1-0.5-1-1v-71c0-0.5,0.4-1,1-1s1,0.5,1,1v71C171.8,446.2,171.4,446.6,170.8,446.6z"/>
	<path fill="#CCCCCC" d="M177.8,460.1c-0.6,0-1-0.5-1-1v-98c0-0.5,0.4-1,1-1s1,0.5,1,1v98C178.8,459.7,178.4,460.1,177.8,460.1z"/>
	<path fill="#CCCCCC" d="M184.8,446.6c-0.6,0-1-0.5-1-1v-71c0-0.5,0.4-1,1-1s1,0.5,1,1v71C185.8,446.2,185.4,446.6,184.8,446.6z"/>
	<path fill="#CCCCCC" d="M191.8,453.1c-0.6,0-1-0.5-1-1v-84c0-0.5,0.4-1,1-1s1,0.5,1,1v84C192.8,452.7,192.4,453.1,191.8,453.1z"/>
	<path fill="#CCCCCC" d="M198.8,436.1c-0.6,0-1-0.5-1-1v-50c0-0.5,0.4-1,1-1s1,0.5,1,1v50C199.8,435.7,199.4,436.1,198.8,436.1z"/>
	<path fill="#CCCCCC" d="M205.8,440.1c-0.6,0-1-0.5-1-1v-58c0-0.5,0.4-1,1-1s1,0.5,1,1v58C206.8,439.7,206.4,440.1,205.8,440.1z"/>
	<path fill="#CCCCCC" d="M212.8,428.6c-0.6,0-1-0.5-1-1v-35c0-0.5,0.4-1,1-1s1,0.5,1,1v35C213.8,428.2,213.4,428.6,212.8,428.6z"/>
	<path fill="#CCCCCC" d="M218.8,428.6c-0.6,0-1-0.5-1-1v-35c0-0.5,0.4-1,1-1s1,0.5,1,1v35C219.8,428.2,219.4,428.6,218.8,428.6z"/>
	<path fill="#CCCCCC" d="M225.8,434.1c-0.6,0-1-0.5-1-1v-46c0-0.5,0.4-1,1-1s1,0.5,1,1v46C226.8,433.7,226.4,434.1,225.8,434.1z"/>
	<path fill="#CCCCCC" d="M232.8,437.6c-0.6,0-1-0.5-1-1v-53c0-0.5,0.4-1,1-1s1,0.5,1,1v53C233.8,437.2,233.4,437.6,232.8,437.6z"/>
	<path fill="#CCCCCC" d="M239.8,446.6c-0.6,0-1-0.5-1-1v-71c0-0.5,0.4-1,1-1s1,0.5,1,1v71C240.8,446.2,240.4,446.6,239.8,446.6z"/>
	<path fill="#CCCCCC" d="M246.8,476.1c-0.6,0-1-0.5-1-1v-130c0-0.5,0.4-1,1-1s1,0.5,1,1v130C247.8,475.7,247.4,476.1,246.8,476.1z"
		/>
	<path fill="#CCCCCC" d="M253.8,446.6c-0.6,0-1-0.5-1-1v-71c0-0.5,0.4-1,1-1s1,0.5,1,1v71C254.8,446.2,254.4,446.6,253.8,446.6z"/>
	<path fill="#CCCCCC" d="M260.8,453.1c-0.5,0-1-0.5-1-1v-84c0-0.5,0.5-1,1-1s1,0.5,1,1v84C261.8,452.7,261.4,453.1,260.8,453.1z"/>
	<path fill="#CCCCCC" d="M267.8,436.1c-0.5,0-1-0.5-1-1v-50c0-0.5,0.5-1,1-1s1,0.5,1,1v50C268.8,435.7,268.4,436.1,267.8,436.1z"/>
	<path fill="#CCCCCC" d="M274.8,440.1c-0.5,0-1-0.5-1-1v-58c0-0.5,0.5-1,1-1s1,0.5,1,1v58C275.8,439.7,275.4,440.1,274.8,440.1z"/>
	<path fill="#CCCCCC" d="M281.8,428.6c-0.5,0-1-0.5-1-1v-35c0-0.5,0.5-1,1-1s1,0.5,1,1v35C282.8,428.2,282.4,428.6,281.8,428.6z"/>
	<path fill="#CCCCCC" d="M287.8,428.6c-0.5,0-1-0.5-1-1v-35c0-0.5,0.5-1,1-1s1,0.5,1,1v35C288.8,428.2,288.4,428.6,287.8,428.6z"/>
	<path fill="#CCCCCC" d="M294.8,434.1c-0.5,0-1-0.5-1-1v-46c0-0.5,0.5-1,1-1s1,0.5,1,1v46C295.8,433.7,295.4,434.1,294.8,434.1z"/>
	<path fill="#CCCCCC" d="M301.8,437.6c-0.5,0-1-0.5-1-1v-53c0-0.5,0.5-1,1-1s1,0.5,1,1v53C302.8,437.2,302.4,437.6,301.8,437.6z"/>
	<path fill="#CCCCCC" d="M308.8,446.6c-0.5,0-1-0.5-1-1v-71c0-0.5,0.5-1,1-1s1,0.5,1,1v71C309.8,446.2,309.4,446.6,308.8,446.6z"/>
	<path fill="#CCCCCC" d="M315.8,460.1c-0.5,0-1-0.5-1-1v-98c0-0.5,0.5-1,1-1s1,0.5,1,1v98C316.8,459.7,316.4,460.1,315.8,460.1z"/>
	<path fill="#6C63FF" d="M320.8,504.4c-0.5,0-1-0.5-1-1V316.9c0-0.5,0.5-1,1-1s1,0.5,1,1v186.5C321.8,504,321.4,504.4,320.8,504.4z"
		/>
	<path fill="#CCCCCC" d="M322.8,446.6c-0.5,0-1-0.5-1-1v-71c0-0.5,0.5-1,1-1s1,0.5,1,1v71C323.8,446.2,323.4,446.6,322.8,446.6z"/>
	<path fill="#CCCCCC" d="M329.8,453.1c-0.5,0-1-0.5-1-1v-84c0-0.5,0.5-1,1-1s1,0.5,1,1v84C330.8,452.7,330.4,453.1,329.8,453.1z"/>
	<path fill="#CCCCCC" d="M336.8,436.1c-0.5,0-1-0.5-1-1v-50c0-0.5,0.5-1,1-1s1,0.5,1,1v50C337.8,435.7,337.4,436.1,336.8,436.1z"/>
	<path fill="#CCCCCC" d="M343.8,440.1c-0.5,0-1-0.5-1-1v-58c0-0.5,0.5-1,1-1s1,0.5,1,1v58C344.8,439.7,344.4,440.1,343.8,440.1z"/>
	<path fill="#CCCCCC" d="M350.8,428.6c-0.5,0-1-0.5-1-1v-35c0-0.5,0.5-1,1-1s1,0.5,1,1v35C351.8,428.2,351.4,428.6,350.8,428.6z"/>
	<path fill="#CCCCCC" d="M356.8,428.6c-0.5,0-1-0.5-1-1v-35c0-0.5,0.5-1,1-1s1,0.5,1,1v35C357.8,428.2,357.4,428.6,356.8,428.6z"/>
	<path fill="#CCCCCC" d="M363.8,434.1c-0.5,0-1-0.5-1-1v-46c0-0.5,0.5-1,1-1s1,0.5,1,1v46C364.8,433.7,364.4,434.1,363.8,434.1z"/>
	<path fill="#CCCCCC" d="M370.8,437.6c-0.5,0-1-0.5-1-1v-53c0-0.5,0.5-1,1-1s1,0.5,1,1v53C371.8,437.2,371.4,437.6,370.8,437.6z"/>
	<path fill="#CCCCCC" d="M377.8,446.6c-0.5,0-1-0.5-1-1v-71c0-0.5,0.5-1,1-1s1,0.5,1,1v71C378.8,446.2,378.4,446.6,377.8,446.6z"/>
	<path fill="#CCCCCC" d="M384.8,476.1c-0.5,0-1-0.5-1-1v-130c0-0.5,0.5-1,1-1s1,0.5,1,1v130C385.8,475.7,385.4,476.1,384.8,476.1z"
		/>
	<path fill="#CCCCCC" d="M391.8,446.6c-0.5,0-1-0.5-1-1v-71c0-0.5,0.5-1,1-1s1,0.5,1,1v71C392.8,446.2,392.4,446.6,391.8,446.6z"/>
	<path fill="#CCCCCC" d="M398.8,453.1c-0.5,0-1-0.5-1-1v-84c0-0.5,0.5-1,1-1s1,0.5,1,1v84C399.8,452.7,399.4,453.1,398.8,453.1z"/>
	<path fill="#CCCCCC" d="M405.8,436.1c-0.5,0-1-0.5-1-1v-50c0-0.5,0.5-1,1-1s1,0.5,1,1v50C406.8,435.7,406.4,436.1,405.8,436.1z"/>
	<path fill="#CCCCCC" d="M412.8,440.1c-0.5,0-1-0.5-1-1v-58c0-0.5,0.5-1,1-1s1,0.5,1,1v58C413.8,439.7,413.4,440.1,412.8,440.1z"/>
	<path fill="#CCCCCC" d="M419.8,428.6c-0.5,0-1-0.5-1-1v-35c0-0.5,0.5-1,1-1s1,0.5,1,1v35C420.8,428.2,420.4,428.6,419.8,428.6z"/>
	<path fill="#3F3D56" d="M177.8,670.2v35.7l28-17.8L177.8,670.2z"/>
	
		<ellipse transform="matrix(0.7074 -0.7068 0.7068 0.7074 -403.5136 401.2101)" fill="#6C63FF" cx="282.8" cy="688" rx="20" ry="20"/>
	<path fill="#3F3D56" d="M370.1,704h-6.9c-1.9,0-3.4-1.5-3.4-3.4v-25.1c0-1.9,1.5-3.4,3.4-3.4h6.9c1.9,0,3.4,1.5,3.4,3.4v25.2
		C373.5,702.5,372,704,370.1,704z M391.8,700.6v-25.2c0-1.9-1.5-3.4-3.4-3.4h-6.9c-1.9,0-3.4,1.5-3.4,3.4v25.2
		c0,1.9,1.5,3.4,3.4,3.4h6.9C390.3,704,391.8,702.5,391.8,700.6L391.8,700.6L391.8,700.6z"/>
	<path fill="#CCCCCC" d="M372.5,531.2H197.2c-0.7,0-1.2-0.5-1.2-1.2s0.5-1.2,1.2-1.2h175.3c0.7,0,1.2,0.5,1.2,1.2
		C373.7,530.6,373.1,531.2,372.5,531.2z"/>
	<path fill="#CCCCCC" d="M372.5,291.2H197.2c-0.7,0-1.2-0.5-1.2-1.2c0-0.6,0.5-1.2,1.2-1.2h175.3c0.7,0,1.2,0.5,1.2,1.2
		C373.7,290.6,373.1,291.2,372.5,291.2z"/>
	<path fill="#F2F2F2" d="M656,447.2c-0.1,0-0.2,0-0.4,0l-34.2-4.5c-1.5-0.2-2.6-1.6-2.4-3.2c0.1-0.5,0.3-1,0.6-1.4l23.8-28.4
		c1-1.2,2.8-1.4,4-0.4c0.4,0.4,0.7,0.8,0.9,1.3l10.3,32.9c0.5,1.5-0.3,3.1-1.8,3.5C656.6,447.1,656.3,447.2,656,447.2L656,447.2z"/>
	<path fill="#F2F2F2" d="M592,601.1c-1.5,0-2.8-1.2-2.8-2.8l-0.4-37.1c0-1.6,1.2-2.8,2.8-2.9c0.5,0,1.1,0.1,1.5,0.4l29.3,18.2
		c1.3,0.8,1.7,2.6,0.9,3.9c-0.2,0.3-0.5,0.7-0.8,0.9l-28.9,18.9C593.1,601,592.6,601.1,592,601.1L592,601.1L592,601.1z"/>
	<path fill="#F2F2F2" d="M864,658.1c-1.5,0-2.8-1.2-2.8-2.8l-0.4-37.1c0-1.6,1.2-2.8,2.8-2.9c0.5,0,1.1,0.1,1.5,0.4l29.3,18.2
		c1.3,0.8,1.7,2.6,0.9,3.9c-0.2,0.3-0.5,0.7-0.8,0.9l-28.9,18.9C865.1,658,864.6,658.1,864,658.1L864,658.1L864,658.1z"/>
	<path fill="#2F2E41" d="M721.6,533.4c-8.1-3.7-13.4-14.4-13.1-24.9s5.8-20.3,13.5-25.3c7.5-4.8,17-5.5,25.2-1.9
		c8.2,3.5,19.2,4.4,24.1,13.1c3.8,6.6,2.4,21.5-0.3,28.9c-2.3,6.4-8,10-13.5,12c-12.3,4.5-26,3.4-37.5-3"/>
	<polygon fill="#FFB8B8" points="811.3,827.1 799.8,831.4 777.8,789.1 794.8,782.8 	"/>
	<path fill="#2F2E41" d="M790.4,831.2l22.2-8.3l0,0l5.2,14l0,0l-36.1,13.4l0,0l0,0C778.7,842.6,782.7,834,790.4,831.2L790.4,831.2z"
		/>
	<polygon fill="#FFB8B8" points="701.1,838.9 688.8,838.9 683,791.6 701.1,791.6 	"/>
	<path fill="#2F2E41" d="M680,835.4h23.6l0,0v14.9l0,0h-38.5l0,0l0,0C665.2,842.1,671.8,835.4,680,835.4z"/>
	<path fill="#FFB8B8" d="M663.8,668.5c5.9-0.6,10.2-5.9,9.5-11.8c-0.1-0.6-0.2-1.3-0.4-1.9l40.3-69.6l-14.1-5.6l-40.3,68
		c-5.6,2-8.5,8.2-6.5,13.8C654.1,666.1,658.8,669,663.8,668.5L663.8,668.5z"/>
	<path fill="#2F2E41" d="M704.2,610l-21.4-13.3l20.2-36.8c3.7-6.7,12.1-9.1,18.8-5.5s9.1,12.1,5.5,18.8c-0.1,0.2-0.3,0.5-0.4,0.7
		L704.2,610z"/>
	<path fill="#2F2E41" d="M786.1,806.8c-1.7,0-3.3-1-4-2.5l-53.3-109.8c-0.9-1.7-3-2.4-4.7-1.5c-1,0.5-1.6,1.4-1.8,2.4l-19,104.6
		c-0.4,2.1-2.3,3.6-4.4,3.6h-12.1c-2.3,0-4.3-1.8-4.5-4.1c-7.4-81.6-3.4-141,12-176.5c0.9-2,3.2-3.1,5.3-2.5l61.4,16.5
		c1.6,0.4,2.8,1.7,3.2,3.3l38.5,157.1c0.6,2.3-0.7,4.7-3,5.4l-12.2,3.8C787,806.8,786.5,806.8,786.1,806.8z"/>
	<circle fill="#FFB8B8" cx="738.3" cy="518.8" r="24.6"/>
	<path fill="#6C63FF" d="M761.5,554.7c0,0-22-12-39,1c0,0-21.5,21.5-14.5,42.5l-17.5,49.5c13.8,26.3,54.4,22,74,0l-1.5-47.5
		L761.5,554.7z"/>
	<path fill="#2F2E41" d="M775.5,686.9c-3.8,0.1-7.6-0.7-11-2.5c-5.4-2.9-8.7-8.3-9.9-16.2c-1.9-13.1-0.3-31.1,1.3-50.2
		c2.2-24.8,4.5-50.5-1.6-64.6c-1-2.3,0.1-4.9,2.4-5.9c0.8-0.3,1.7-0.4,2.5-0.3l17.2,3c1.8,0.3,3.3,1.7,3.7,3.6l23.9,121.3
		c0.4,2-0.6,4.1-2.5,4.9C796.2,682.5,785.5,686.9,775.5,686.9z"/>
	<path fill="#2F2E41" d="M685.3,685.3c-0.6,0-1.2-0.1-1.8-0.4c-2.8-1.2-6.8-3-11.6-5.3c-13.5-6.3,22.1-93.4,29.4-110.8
		c0.3-0.6,0.6-1.2,1.1-1.6l19.5-17.8c2-1.5,4.8-1.2,6.3,0.8c0.9,1.2,1.2,2.7,0.8,4c-3.4,11.5-9.5,30.7-15.9,51.1
		c-10.1,32.1-20.6,65.4-23.4,76.5C689.1,683.9,687.3,685.3,685.3,685.3L685.3,685.3z"/>
	<path fill="#FFB8B8" d="M822.4,664.2c3-5.1,1.4-11.7-3.7-14.7c-0.5-0.3-1.1-0.6-1.7-0.8l-31.2-74.1l-13,7.9l30,73.2
		c-1.7,5.7,1.5,11.7,7.2,13.5C814.7,670.5,819.8,668.5,822.4,664.2L822.4,664.2z"/>
	<path fill="#2F2E41" d="M776.5,605.8l-17.2-38.3c-3.1-7,0-15.2,6.9-18.3s15.2,0,18.3,6.9c0.1,0.2,0.2,0.5,0.3,0.7l15.2,39.8
		L776.5,605.8z"/>
	<path fill="#2F2E41" d="M755.8,488.2c1.8,0.3,3.6-0.7,4.3-2.4c0.7-1.7,0.5-3.6-0.4-5.1c-0.9-1.5-2.2-2.8-3.8-3.7
		c-1.8-1.2-3.8-1.9-6-2.1c-2.2-0.1-4.3,0.7-5.8,2.2c-1.5,1.6-1.9,3.9-1,5.9c0.9,1.7,2.8,2.7,4.6,3.4c3.6,1.3,7.5,1.8,11.4,1.5"/>
	<path fill="#2F2E41" d="M764.5,514.7c-3.8,1.1-3.6-1-5.7-4.3c-2.1-3.4-4.8-7.4-8.8-7.2c-3.3,0.2-5.5,3.1-7.9,5.4
		c-4.1,4.1-10.2,6.7-15.8,5.4s-10.4-7.1-9.1-12.8c0.8-3.2,3-5.9,5.9-7.5c2.9-1.5,6.1-2.5,9.3-2.7c7.2-0.8,14.5-0.1,21.4,2.2
		c4.8,1.6,9.5,4.2,11.9,8.6s4.4,10.8-0.2,12.8L764.5,514.7L764.5,514.7z"/>
	<path fill="#2F2E41" d="M752.4,475.5c-3.2-4.1-2-10.6,1.8-14.2s9.4-4.8,14.6-4.3c10.5,1.1,19.7,7.6,24,17.3
		c3.3,7.5,3.3,16.2,6.3,23.8c6.4,16.5,25,24.7,41.6,18.3c0.6-0.2,1.2-0.5,1.8-0.8c5.2-2.4,10.1-7.1,9.8-12.8
		c3.3,12.6-2.6,27.1-13.8,33.9c-6.6,3.9-14.3,5.3-21.9,6.2c-5,0.6-10,1-14.9-0.2c-6.8-1.7-12.4-6.7-15.8-12.8
		c-3.4-6.1-4.8-13.2-4.8-20.1c0-5.4,0.7-10.9,0.3-16.3s-2-11-5.9-14.8s-10.6-5-14.9-1.7c-1.7,1.3-3,3.3-5,4.3s-5,0.2-5.2-2
		L752.4,475.5z"/>
	<path fill="#3F3D56" d="M883.7,851.8H576.4c-0.7,0-1.2-0.5-1.2-1.2c0-0.7,0.5-1.2,1.2-1.2h307.3c0.7,0,1.2,0.5,1.2,1.2
		C884.9,851.2,884.3,851.8,883.7,851.8z"/>
</g>
</svg>
